<svg width="300" height="80" viewBox="0 0 300 80" fill="none" xmlns="http://www.w3.org/2000/svg">
  <!-- Nexia circular logo -->
  <g transform="translate(10, 20)">
    <!-- Outer ring -->
    <path d="M20 0C31.046 0 40 8.954 40 20C40 31.046 31.046 40 20 40C8.954 40 0 31.046 0 20C0 8.954 8.954 0 20 0Z" fill="#00B9B9"/>
    <!-- Inner design -->
    <path d="M12 8C18 8 24 10 28 15C26 12 22 10 18 10C14 10 10 12 8 16C10 12 12 8 12 8Z" fill="#FFFFFF" opacity="0.3"/>
    <path d="M8 24C8 30 10 34 15 36C12 34 10 30 10 26C10 22 12 18 16 16C12 18 8 21 8 24Z" fill="#FFFFFF" opacity="0.3"/>
    <path d="M28 16C32 18 34 22 34 26C34 30 32 34 28 36C30 34 32 30 32 26C32 22 30 18 28 16Z" fill="#FFFFFF" opacity="0.6"/>
    <!-- Central interlinked elements -->
    <ellipse cx="15" cy="15" rx="8" ry="6" fill="#FFFFFF" opacity="0.2" transform="rotate(30 15 15)"/>
    <ellipse cx="25" cy="25" rx="8" ry="6" fill="#FFFFFF" opacity="0.2" transform="rotate(-30 25 25)"/>
  </g>
  
  <!-- Main NEXIA text -->
  <text x="70" y="35" font-family="Poppins, Arial, sans-serif" font-size="28" font-weight="700" fill="#FFFFFF">
    Nexia
  </text>
  
  <!-- Fiducia Maroc text -->
  <text x="70" y="55" font-family="Poppins, Arial, sans-serif" font-size="16" font-weight="400" fill="#FFFFFF">
    Fiducia Maroc
  </text>
</svg>